<svg version="1.1" baseProfile="full" xmlns="http://www.w3.org/2000/svg" xmlns:xlink="http://www.w3.org/1999/xlink" xmlns:ev="http://www.w3.org/2001/xml-events" xml:space="preserve" x="0px" y="0px" width="23px" height="18px"  viewBox="0 0 23 18" preserveAspectRatio="none" shape-rendering="geometricPrecision"><path fill="#ea6a45" d="M133.517,134.878l-7.645-7.713a1.406,1.406,0,0,0-2,0,1.437,1.437,0,0,0,0,2.02l5.228,5.274h-17a1.429,1.429,0,0,0,0,2.857h17l-5.228,5.274a1.437,1.437,0,0,0,0,2.02,1.405,1.405,0,0,0,2,0l7.645-7.712A1.437,1.437,0,0,0,133.517,134.878Z" transform="translate(-110.688 -126.75)"></path></svg>