<?xml version="1.0" encoding="utf-8"?>
<!-- Generator: Adobe Illustrator 19.2.0, SVG Export Plug-In . SVG Version: 6.00 Build 0)  -->
<svg version="1.1" id="Layer_1" xmlns="http://www.w3.org/2000/svg" xmlns:xlink="http://www.w3.org/1999/xlink" x="0px" y="0px"
	 viewBox="0 0 332.1 327.1" style="enable-background:new 0 0 332.1 327.1;" xml:space="preserve">
<style type="text/css">
	.st0{fill-rule:evenodd;clip-rule:evenodd;fill:#A6C758;}
	.st1{fill-rule:evenodd;clip-rule:evenodd;fill:#709159;}
	.st2{fill:#709159;}
</style>
<path class="st0" d="M226.3,211.7v-15.1c25.8,1.3,48.2,9.6,55.5,26c-15.8-8.3-35.9-10.7-52.3-10.9
	C228.4,211.7,227.3,211.7,226.3,211.7L226.3,211.7z M226.3,169.4v-10.1c9.6-1.6,19.1,0.6,24.9,9.2
	C246.3,175.1,238.1,170.9,226.3,169.4L226.3,169.4z M226.3,148.2v-11.1c24.3-14.3,52.6-13.1,53.5-4.1
	C267.2,132.4,245.1,138.9,226.3,148.2L226.3,148.2z M226.3,109.1c5.3-5.9,11.3-10.2,18.5-11.5c-10,6-16.3,18-17.9,29.3
	c19.5-11.4,43.8-7.7,52.3-3.5c-4.4-52-30.4-57-52.9-37.6V109.1L226.3,109.1z M226.3,76.2V64c5.1-10.7,11.9-16.9,16.4-27.7
	C249.8,53.2,245.2,64.5,226.3,76.2z M226.3,64v12.2c-1.5,0.9-3.1,1.9-4.8,2.8v-0.1C222.6,72.9,224.3,68.1,226.3,64L226.3,64z
	 M226.3,85.9v23.2c-1.7,1.8-3.3,3.8-4.8,5.9V90.5C223,88.9,224.6,87.3,226.3,85.9L226.3,85.9z M226.3,137.1v11.1
	c-1.6,0.8-3.3,1.7-4.8,2.5v-10.5C223,139.1,224.6,138.1,226.3,137.1L226.3,137.1z M226.3,159.2v10.1c-1.6-0.2-3.2-0.3-4.8-0.4v-8.6
	C223,159.9,224.7,159.5,226.3,159.2L226.3,159.2z M226.3,196.6v15.1c-1.6,0-3.2,0-4.8,0.1v-15.3
	C223.1,196.5,224.7,196.6,226.3,196.6L226.3,196.6z M221.4,51.8V36.5C222.2,41.6,222.2,46.7,221.4,51.8z M221.4,36.5v15.3
	c-3,20.9-16.9,41.5-27.4,63v-98c1.9-6.7,3.7-12.4,5.2-16.8C213.1,12.5,219.6,24.6,221.4,36.5L221.4,36.5z M221.4,78.9l0,0.1l0,0
	V78.9L221.4,78.9z M221.4,90.5c-12.3,12.8-22.9,32.9-27.4,56.1v4.9c10.6-9.4,18.4-24.6,27.4-36.6V90.5L221.4,90.5z M221.4,140.2
	v10.5c-9.5,5.1-17.8,10.9-23.1,16.8C203.8,155.6,212.1,146.7,221.4,140.2L221.4,140.2z M221.4,160.3c-7.8,2.3-15.2,6.8-20,12
	c7.5-3,14.1-3.7,20-3.4V160.3L221.4,160.3z M221.4,196.5v15.3c-6.5,0.2-13,0.7-19.6,1.4v0c-1.9,0.2-3.9,0.5-5.8,0.7
	c-1.6-9.3-1.4-24,0.4-33.3c5.1,7.2,8.2,12.4,9.8,16.3C211.3,196.6,216.4,196.4,221.4,196.5L221.4,196.5z M194,6.9
	c0.3-0.5,0.7-0.9,1-1.3c-0.3,0-0.7,0.1-1,0.1V6.9z M194,5.8v1.1c-8.4,11.9-21.6,61.5-22.3,80.3c-3.5-9.1-8.3-24.1-9.1-38.9v-8.3
	C163.6,23.3,171.4,8.5,194,5.8L194,5.8z M194,16.8c-10.1,35.9-22.3,98.6-9,120.3c2.2-7.6,5.4-15,9-22.3V16.8L194,16.8z M194,146.6
	v4.9c-0.3,0.3-0.7,0.6-1,0.9C193.3,150.4,193.7,148.5,194,146.6L194,146.6z M162.6,148.7v-29.4c5.7,11.7,8.5,23.9,6.6,35.7
	C167.7,153.1,165.3,150.9,162.6,148.7L162.6,148.7z M162.6,107c1,1.1,2.1,2.2,3.1,3.2c1.5-11.3,0-22.5-3.1-32.3V107L162.6,107z
	 M162.6,17.5L162.6,17.5L162.6,17.5L162.6,17.5z M135.6,218.8c6.3-3.1,12.5-5.9,18.4-8.4c2.6-6.7,5.6-14.5,7.8-24.7
	c2.4,7.1-0.9,23-2.8,35.9c-2.1,0.6-4.3,1.2-6.4,1.8l0,0c-5.8,1.7-11.4,3.6-17,5.6V218.8L135.6,218.8z M162.6,17.5L162.6,17.5
	c-6.1,10.8-7.4,18.6-5.6,31.1C143.7,42.8,137,27,162.6,17.5L162.6,17.5z M162.6,40.1c-0.2,2.7-0.2,5.5,0,8.3V40.1L162.6,40.1z
	 M162.6,77.9C156.1,57.3,142.5,43,135.6,48v21.9c5.5,11.9,16.4,25.8,27.1,37.1V77.9L162.6,77.9z M162.6,119.3v29.4
	c-5.1-4.1-11.2-8.1-14.7-9.5c-3.6-11.7-8-20.4-12.4-27.3V83.3C146.5,94,156.3,106.3,162.6,119.3L162.6,119.3z M135.6,172.2v-10.3
	c3.8,0.9,8,2.3,12.6,4.3C143.7,168.9,139.4,170.9,135.6,172.2L135.6,172.2z M135.6,155.5c14.2,3.5,25,11.1,25.9,23.3
	c2.9-13.7-9.5-28.1-25.9-37.2V155.5L135.6,155.5z M135.6,135c1.1,0.1,2.3,0.3,3.4,0.4c-0.6-2.2-1.8-5.5-3.4-9.2V135z M118.2,228.2
	c5.7-3.4,11.6-6.5,17.3-9.4V229c-3.3,1.2-6.6,2.5-9.9,3.8c-2.5,1-5,2-7.5,3.1V228.2L118.2,228.2z M135.6,48v21.9
	c-4-8.6-5.1-16.2-1.1-20.8C134.8,48.6,135.2,48.3,135.6,48L135.6,48z M135.6,83.3c-5.6-5.5-11.5-10.5-17.3-14.9v22.5
	c5,5.8,11.3,11.7,17.3,21.1V83.3L135.6,83.3z M135.6,126.2v8.8c-6.8-0.9-12.6-2.2-17.3-3.8v-29C125.6,106.7,131.8,117.5,135.6,126.2
	L135.6,126.2z M135.6,141.6c-5.5-3.1-11.4-5.5-17.3-7.2v18.9c6,0.2,11.9,0.9,17.3,2.2V141.6L135.6,141.6z M135.6,161.9v10.3
	c-7.2,2.5-13.1,2.7-17.3,1.7v-12.4C122.3,160.3,128.1,160.1,135.6,161.9L135.6,161.9z M118.2,62.3V33.8c6.1,6.5,10.7,17.4,9.7,33.8
	C124.3,65.9,121,64.1,118.2,62.3z M80.8,255.7c10.2-9.8,23.5-19.3,37.5-27.5v7.7C105.4,241.5,92.7,248.1,80.8,255.7L80.8,255.7z
	 M118.2,33.8v28.5c-12.5-8-16.4-17.2-6.2-33.6C114.1,30,116.2,31.6,118.2,33.8L118.2,33.8z M118.2,68.4c-3.3-2.5-6.6-4.8-9.8-6.9
	c-1.3,14.4,3.1,21.7,9.8,29.3V68.4L118.2,68.4z M118.2,102.2v29c-19.7-6.6-23.3-18-18.2-24.3C106.4,99,112.6,98.7,118.2,102.2
	L118.2,102.2z M118.2,134.4c-21.2-6-42.5-1.7-44.2,22.7v6.8c0,0.1,0,0.1,0,0.2c11.1-7.5,28.1-11.2,44.2-10.8V134.4L118.2,134.4z
	 M118.2,161.5v12.4c-3.6-0.8-6-2.5-6.7-4.5C110.4,166.6,112.7,163.1,118.2,161.5z"/>
<path class="st1" d="M55.1,287.6c77.1-73,248.8-91.9,242.5-17.3C270.6,208.5,108.2,242,55.1,287.6z"/>

	<path class="st1" d="M253.6,50.4c38.6,24.6,64.2,67.9,64.2,117.1c0,26.2-7.3,50.7-19.9,71.7c-0.8-2-1.7-3.9-2.6-5.8
		c11-19.4,17.3-41.9,17.3-65.8c0-46.4-23.7-87.4-59.7-111.3C253.4,54.3,253.6,52.4,253.6,50.4L253.6,50.4z M70.9,254.4
		c-19.1-23.8-30.6-54-30.6-86.9c0-47.2,23.6-88.9,59.7-114c0.3,0.9,0.7,1.8,1.2,2.6l-0.3,3.1c-33.6,24.3-55.4,63.8-55.4,108.3
		c0,31.5,10.9,60.5,29.2,83.3L70.9,254.4z"/>

	<path class="st2" d="M33.6,292.6c-3,0-5.8-0.6-8.3-1.7c-3.4-1.5-5.1-3.7-5.1-6.6c0-4.6,4.4-8.4,13.2-11.5c6.8-2.4,13-3.5,18.4-3.5
		c5.4,0,8.2,2,8.2,6.1c0,2.3-2,4.5-5.9,6.6c-3.5,1.9-6.3,2.8-8.7,2.8c-1.4,0-2.2-0.7-2.2-2.1c0-0.9,0.6-1.8,1.8-2.7
		c1.1-0.9,2.1-1.3,2.9-1.3c0.5,0,0.7,0.2,0.7,0.6c0,0.2-0.3,0.4-1,0.8c-0.7,0.4-1.2,0.7-1.3,0.9c0.2,0.2,0.5,0.3,0.9,0.3
		c1.2,0,3.3-0.8,6.2-2.4c3.1-1.7,4.7-3.2,4.7-4.4c0-1.1-1.7-1.6-5.1-1.6c-3.8,0-8.4,0.8-13.7,2.3c-3.5,1.1-6.7,2.3-9.7,3.7
		c-4.8,2.3-7.2,4.4-7.2,6.4c0,2.4,3.3,4.1,9.9,5c3.8,0.6,8,0.9,12.6,0.9c0.9,0,1.4,0.4,1.4,1.2c0,1.5-1.5,2.3-4.6,2.5
		c-9.3,0.5-18.2,3-26.6,7.4c-8.6,4.6-12.9,9.1-12.9,13.7c0,4.5,3.3,6.7,10,6.7c4,0,7.9-1,11.6-3.1c2.5-1.4,5-3.3,7.5-5.7
		c2.1-2.1,3.2-3.1,3.3-3.1c0.5,0,0.8,0.8,0.8,2.3c0,2.5-2.4,5.4-7.3,8.6c-4.9,3.2-9.8,4.9-14.8,4.9c-9.1,0-13.6-4.1-13.6-12.3
		c0-5.3,3.2-10,9.6-13.9c4.3-2.6,9.6-4.7,15.9-6.3C27.4,293.6,30,293.1,33.6,292.6z"/>
	<path class="st2" d="M55,312.5l-8.8,7.5c-4.7,3.7-8.2,5.6-10.4,5.6c-0.3,0-0.4-0.2-0.4-0.5c0-0.5,0.4-0.8,1.3-1
		c1-0.2,2.1-0.6,3.4-1.5c1.6-0.9,4.2-3,8-6.2c2.7-2.3,5.6-4.8,8.7-7.5c3.5-6,8.4-12.6,14.5-19.6c6.9-7.8,11.5-11.8,13.8-11.8
		c1.1,0,1.6,0.7,1.6,2c0,3.4-3.5,8.8-10.5,16.3c-4.4,4.7-9.2,9.3-14.4,13.7c-1.2,1-2.7,3.2-4.5,6.5c-1.9,3.4-2.8,5.8-2.8,7.2
		c0,0.7,0.6,1,2,1c0.3,0,0.5,0.2,0.5,0.6c0,0.5-0.6,0.8-1.9,0.8c-2,0-2.9-1.1-2.9-3.4C52.2,320.1,53.1,316.9,55,312.5z M84.9,278.8
		c-0.9,0-4.6,4.1-10.9,12.4c-6.1,7.9-9.9,13.3-11.6,16.3c15.4-14.4,23.2-23.7,23.2-28C85.6,279,85.3,278.8,84.9,278.8z"/>
	<path class="st2" d="M79,323.2c0,0.7,0.7,1.1,2.1,1.1c0.3,0,0.5,0.2,0.5,0.7c0,0.5-0.8,0.8-2.4,0.8c-1.8,0-2.7-1-2.7-2.9
		c0-2.3,2.6-7,7.9-14.2l-9.7,9c-5.7,5.4-9.9,8-12.5,8c-0.3,0-0.4-0.2-0.4-0.5c0-0.5,0.2-0.8,0.7-0.9c1.5-0.3,2.9-0.9,4.1-1.7
		c1.5-1,4.8-3.7,9.8-8.2l10.9-10.4c0.5-0.2,1.1-0.3,1.9-0.3c0.8,0,1.2,0.5,1.2,1.6c0,1.1-1.9,4.2-5.7,9.2
		C80.9,319.3,79,322.3,79,323.2z M94.7,295.1c-1.1,0-1.7-0.7-1.7-2c0-1.1,0.6-2.1,1.7-3c1-0.8,2.1-1.2,3.1-1.2
		c1.2,0,1.8,0.8,1.8,2.3c0,1.1-0.6,2.1-1.8,2.8C96.8,294.8,95.7,295.1,94.7,295.1z"/>
	<path class="st2" d="M115.3,299.2l-12.8,0.6c-0.7,0-1.1-0.2-1.1-0.6c0-0.4,0.6-0.6,1.7-0.8c1.6-0.3,3.9-0.6,6.9-0.8
		c3.3-0.2,5.6-0.4,6.9-0.6l5.1-6.9c2.7-3.7,4.4-5.5,4.9-5.5c0.7,0,1.1,0.5,1.1,1.5c0,1.1-2.2,4.7-6.5,10.9c2.5-0.2,4.5-0.3,6.2-0.3
		c1.1,0,1.6,0.2,1.6,0.7c0,0.5-1.3,0.9-3.9,1.1l-5.4,0.2l-7.9,11.3c-5,7.4-7.5,11.8-7.5,13.3c0,0.7,0.4,1,1.2,1
		c0.8,0,1.2,0.2,1.2,0.7c0,0.5-0.5,0.8-1.6,0.8c-2.1,0-3.2-1-3.2-2.9c0-1.5,0.7-3.7,2.1-6.6l3.1-5.9L97,319.7
		c-4.4,3.9-7.7,5.9-10.1,5.9c-0.3,0-0.4-0.2-0.4-0.5c0-0.5,0.2-0.8,0.7-0.9c0.8-0.2,2-0.7,3.7-1.4c1.6-0.9,5.1-3.9,10.6-8.7
		c4-3.6,6.6-5.9,7.6-7C110.9,305.1,113,302.5,115.3,299.2z"/>
	<path class="st2" d="M198.1,302.3h3.3c1.6,0.2,2.4,0.7,2.4,1.7c0,0.6-0.6,0.9-1.7,0.9l-2.3-0.2l-3.3,0l-7.2,10.5
		c-4.9,7-7.6,10.4-8.1,10.4c-0.5,0-0.9-0.4-1.3-1.2c-0.4-0.7-0.5-1.3-0.5-1.8c0-0.8,4-6.8,12.1-17.9h-2.8c-3.9,0-9.6,0.3-17.2,0.7
		l-12,11.7l-4.6,4.8c-2.5,2.5-4,3.7-4.6,3.7c-0.7,0-1-0.4-1-1.2c0-1,3.4-4.7,10.3-11.2l8.1-7.7c-10.9,0.6-16.5,1.2-16.8,1.9v0
		c0,0.5,1.7,0.8,5.1,0.8l4.8-0.1c0.6,0,1,0.1,1,0.5c0,0.8-2.6,1.1-7.7,1.1c-4.4,0-6.6-0.6-6.6-1.9c0-1.6,1.3-2.7,3.9-3.3
		c0.7-0.2,2.6-0.4,5.5-0.6l13.8-1.1c5.6-5.3,13.6-12.1,23.9-20.5c13.2-10.7,21.1-16,23.7-16c1.3,0,1.9,0.9,1.9,2.8
		c0,1.6-1.7,4.8-5,9.5L198.1,302.3z M193,302.3l16.6-23.1l3.1-4.3c1.3-1.9,2.2-3.4,2.6-4.4l0.1-0.2c0-0.3-0.1-0.4-0.4-0.4
		c-1.1,0-8.1,5.4-21.1,16.2l-19.5,16.6L193,302.3z"/>
	<path class="st2" d="M253.3,304.2c0,2.9-1.9,6.3-5.6,10.2c-3.9,4.1-8.6,7.3-14.2,9.5c-5.3,2.1-10.7,3.2-16.2,3.2
		c-7.5,0-11.3-2.6-11.3-7.7c0-3.1,2.1-5.9,6.3-8.4c3.7-2.2,7-3.4,10.1-3.4c1,0,1.5,0.3,1.5,1c0,0.5-0.5,0.8-1.5,0.9
		c-2.9,0.5-5.7,1.5-8.4,2.8c-3.8,1.9-5.7,4-5.7,6.4c0,2.9,2.9,4.3,8.8,4.3c4.7,0,9.8-1.1,15.3-3.2c5.6-2.2,10.1-5,13.6-8.5
		c3.4-3.4,5.2-5.9,5.2-7.5c0-1.6-2.3-2.8-7-3.4c-7.7-1-12-1.7-12.9-1.9c-4.7-1.3-7-3.6-7-6.9c0-4.2,2.7-8.2,8.2-12
		c4.5-3.1,10.2-5.7,17.1-7.9c6.1-1.9,10.9-2.8,14.5-2.8c4.7,0,7,1.6,7,4.9c0,2.8-2.2,6.2-6.5,10c-4.2,3.7-7.6,5.6-10.3,5.6
		c-2.1,0-3.2-0.8-3.2-2.5c0-1.4,1.2-3.1,3.7-4.9c2.3-1.8,4.1-2.7,5.4-2.7c0.4,0,0.7,0.2,0.7,0.5l-3.7,2.3c-2.4,1.5-3.7,2.6-3.8,3.3
		c0.1,0.2,0.3,0.3,0.6,0.3c1.7,0,4.5-1.3,8.4-3.9c4.1-2.8,6.2-5,6.2-6.8c0-1.6-1.7-2.4-5-2.4c-3.8,0-9.1,1.2-16,3.7
		c-4.6,1.7-8.7,3.5-12.2,5.4c-6.1,3.2-9.1,6.2-9.1,8.8c0,1.7,1.9,2.9,5.7,3.7l11.4,1.7c4.4,0.8,7.2,1.9,8.1,3.3
		C252.8,300.9,253.3,302.6,253.3,304.2z"/>
	<path class="st2" d="M310.4,302.3h3.3c1.6,0.2,2.4,0.7,2.4,1.7c0,0.6-0.6,0.9-1.7,0.9l-2.3-0.2l-3.3,0l-7.2,10.5
		c-4.9,7-7.6,10.4-8.1,10.4c-0.5,0-0.9-0.4-1.3-1.2c-0.4-0.7-0.5-1.3-0.5-1.8c0-0.8,4-6.8,12.1-17.9h-2.8c-3.9,0-9.6,0.3-17.2,0.7
		l-12,11.7l-4.6,4.8c-2.5,2.5-4,3.7-4.6,3.7c-0.7,0-1-0.4-1-1.2c0-1,3.4-4.7,10.3-11.2l8.1-7.7c-10.9,0.6-16.5,1.2-16.8,1.9v0
		c0,0.5,1.7,0.8,5.1,0.8l4.8-0.1c0.6,0,1,0.1,1,0.5c0,0.8-2.6,1.1-7.7,1.1c-4.4,0-6.6-0.6-6.6-1.9c0-1.6,1.3-2.7,3.9-3.3
		c0.7-0.2,2.6-0.4,5.5-0.6l13.8-1.1c5.6-5.3,13.6-12.1,23.9-20.5c13.2-10.7,21.1-16,23.7-16c1.3,0,1.9,0.9,1.9,2.8
		c0,1.6-1.7,4.8-5,9.5L310.4,302.3z M305.3,302.3l16.6-23.1l3.1-4.3c1.3-1.9,2.2-3.4,2.6-4.4l0.1-0.2c0-0.3-0.1-0.4-0.4-0.4
		c-1.1,0-8.1,5.4-21.1,16.2l-19.5,16.6L305.3,302.3z"/>

</svg>
