<svg version="1.1" baseProfile="full" xmlns="http://www.w3.org/2000/svg" xmlns:xlink="http://www.w3.org/1999/xlink" xmlns:ev="http://www.w3.org/2001/xml-events" xml:space="preserve" x="0px" y="0px" width="18px" height="18px"  viewBox="0 0 18 18" preserveAspectRatio="none" shape-rendering="geometricPrecision"><path fill="#fff" d="M672.766,113.782a1,1,0,0,1-.708-1.707l15.469-15.467a1,1,0,0,1,1.414,1.414L673.473,113.49a1,1,0,0,1-.707.292h0Zm15.468,0a1,1,0,0,1-.707-0.293L672.058,98.022a1,1,0,1,1,1.415-1.414l15.468,15.468a1,1,0,0,1-.707,1.707h0Z" transform="translate(-671.781 -96.313)"></path></svg>