<svg id="Layer_1" xmlns="http://www.w3.org/2000/svg" viewBox="0 0 332.1 327.1"><style>.st0{fill:#a6c758}.st0,.st1{fill-rule:evenodd;clip-rule:evenodd}.st1,.st2{fill:#709159}</style><path class="st0" d="M226.3 211.7v-15.1c25.8 1.3 48.2 9.6 55.5 26-15.8-8.3-35.9-10.7-52.3-10.9h-3.2zm0-42.3v-10.1c9.6-1.6 19.1.6 24.9 9.2-4.9 6.6-13.1 2.4-24.9.9zm0-21.2v-11.1c24.3-14.3 52.6-13.1 53.5-4.1-12.6-.6-34.7 5.9-53.5 15.2zm0-39.1c5.3-5.9 11.3-10.2 18.5-11.5-10 6-16.3 18-17.9 29.3 19.5-11.4 43.8-7.7 52.3-3.5-4.4-52-30.4-57-52.9-37.6v23.3zm0-32.9V64c5.1-10.7 11.9-16.9 16.4-27.7 7.1 16.9 2.5 28.2-16.4 39.9zm0-12.2v12.2c-1.5.9-3.1 1.9-4.8 2.8v-.1c1.1-6 2.8-10.8 4.8-14.9zm0 21.9v23.2c-1.7 1.8-3.3 3.8-4.8 5.9V90.5c1.5-1.6 3.1-3.2 4.8-4.6zm0 51.2v11.1c-1.6.8-3.3 1.7-4.8 2.5v-10.5c1.5-1.1 3.1-2.1 4.8-3.1zm0 22.1v10.1c-1.6-.2-3.2-.3-4.8-.4v-8.6c1.5-.4 3.2-.8 4.8-1.1zm0 37.4v15.1c-1.6 0-3.2 0-4.8.1v-15.3c1.6 0 3.2.1 4.8.1zm-4.9-144.8V36.5c.8 5.1.8 10.2 0 15.3zm0-15.3v15.3c-3 20.9-16.9 41.5-27.4 63v-98c1.9-6.7 3.7-12.4 5.2-16.8 13.9 12.5 20.4 24.6 22.2 36.5zm0 42.4v.1-.1zm0 11.6c-12.3 12.8-22.9 32.9-27.4 56.1v4.9c10.6-9.4 18.4-24.6 27.4-36.6V90.5zm0 49.7v10.5c-9.5 5.1-17.8 10.9-23.1 16.8 5.5-11.9 13.8-20.8 23.1-27.3zm0 20.1c-7.8 2.3-15.2 6.8-20 12 7.5-3 14.1-3.7 20-3.4v-8.6zm0 36.2v15.3c-6.5.2-13 .7-19.6 1.4-1.9.2-3.9.5-5.8.7-1.6-9.3-1.4-24 .4-33.3 5.1 7.2 8.2 12.4 9.8 16.3 5.1-.3 10.2-.5 15.2-.4zM194 6.9c.3-.5.7-.9 1-1.3-.3 0-.7.1-1 .1v1.2zm0-1.1v1.1c-8.4 11.9-21.6 61.5-22.3 80.3-3.5-9.1-8.3-24.1-9.1-38.9V40c1-16.7 8.8-31.5 31.4-34.2zm0 11c-10.1 35.9-22.3 98.6-9 120.3 2.2-7.6 5.4-15 9-22.3v-98zm0 129.8v4.9c-.3.3-.7.6-1 .9.3-2 .7-3.9 1-5.8zm-31.4 2.1v-29.4c5.7 11.7 8.5 23.9 6.6 35.7-1.5-1.9-3.9-4.1-6.6-6.3zm0-41.7c1 1.1 2.1 2.2 3.1 3.2 1.5-11.3 0-22.5-3.1-32.3V107zm0-89.5zm-27 201.3c6.3-3.1 12.5-5.9 18.4-8.4 2.6-6.7 5.6-14.5 7.8-24.7 2.4 7.1-.9 23-2.8 35.9-2.1.6-4.3 1.2-6.4 1.8-5.8 1.7-11.4 3.6-17 5.6v-10.2zm27-201.3c-6.1 10.8-7.4 18.6-5.6 31.1-13.3-5.8-20-21.6 5.6-31.1zm0 22.6c-.2 2.7-.2 5.5 0 8.3v-8.3zm0 37.8c-6.5-20.6-20.1-34.9-27-29.9v21.9c5.5 11.9 16.4 25.8 27.1 37.1V77.9h-.1zm0 41.4v29.4c-5.1-4.1-11.2-8.1-14.7-9.5-3.6-11.7-8-20.4-12.4-27.3V83.3c11 10.7 20.8 23 27.1 36zm-27 52.9v-10.3c3.8.9 8 2.3 12.6 4.3-4.5 2.7-8.8 4.7-12.6 6zm0-16.7c14.2 3.5 25 11.1 25.9 23.3 2.9-13.7-9.5-28.1-25.9-37.2v13.9zm0-20.5c1.1.1 2.3.3 3.4.4-.6-2.2-1.8-5.5-3.4-9.2v8.8zm-17.4 93.2c5.7-3.4 11.6-6.5 17.3-9.4V229c-3.3 1.2-6.6 2.5-9.9 3.8-2.5 1-5 2-7.5 3.1v-7.7h.1zM135.6 48v21.9c-4-8.6-5.1-16.2-1.1-20.8.3-.5.7-.8 1.1-1.1zm0 35.3c-5.6-5.5-11.5-10.5-17.3-14.9v22.5c5 5.8 11.3 11.7 17.3 21.1V83.3zm0 42.9v8.8c-6.8-.9-12.6-2.2-17.3-3.8v-29c7.3 4.5 13.5 15.3 17.3 24zm0 15.4c-5.5-3.1-11.4-5.5-17.3-7.2v18.9c6 .2 11.9.9 17.3 2.2v-13.9zm0 20.3v10.3c-7.2 2.5-13.1 2.7-17.3 1.7v-12.4c4-1.2 9.8-1.4 17.3.4zm-17.4-99.6V33.8c6.1 6.5 10.7 17.4 9.7 33.8-3.6-1.7-6.9-3.5-9.7-5.3zM80.8 255.7c10.2-9.8 23.5-19.3 37.5-27.5v7.7c-12.9 5.6-25.6 12.2-37.5 19.8zm37.4-221.9v28.5c-12.5-8-16.4-17.2-6.2-33.6 2.1 1.3 4.2 2.9 6.2 5.1zm0 34.6c-3.3-2.5-6.6-4.8-9.8-6.9-1.3 14.4 3.1 21.7 9.8 29.3V68.4zm0 33.8v29c-19.7-6.6-23.3-18-18.2-24.3 6.4-7.9 12.6-8.2 18.2-4.7zm0 32.2c-21.2-6-42.5-1.7-44.2 22.7v7c11.1-7.5 28.1-11.2 44.2-10.8v-18.9zm0 27.1v12.4c-3.6-.8-6-2.5-6.7-4.5-1.1-2.8 1.2-6.3 6.7-7.9z"/><path class="st1" d="M55.1 287.6c77.1-73 248.8-91.9 242.5-17.3-27-61.8-189.4-28.3-242.5 17.3z"/><path class="st1" d="M253.6 50.4c38.6 24.6 64.2 67.9 64.2 117.1 0 26.2-7.3 50.7-19.9 71.7-.8-2-1.7-3.9-2.6-5.8 11-19.4 17.3-41.9 17.3-65.8 0-46.4-23.7-87.4-59.7-111.3.5-2 .7-3.9.7-5.9zm-182.7 204c-19.1-23.8-30.6-54-30.6-86.9 0-47.2 23.6-88.9 59.7-114 .3.9.7 1.8 1.2 2.6l-.3 3.1C67.3 83.5 45.5 123 45.5 167.5c0 31.5 10.9 60.5 29.2 83.3l-3.8 3.6z"/><path class="st2" d="M33.6 292.6c-3 0-5.8-.6-8.3-1.7-3.4-1.5-5.1-3.7-5.1-6.6 0-4.6 4.4-8.4 13.2-11.5 6.8-2.4 13-3.5 18.4-3.5 5.4 0 8.2 2 8.2 6.1 0 2.3-2 4.5-5.9 6.6-3.5 1.9-6.3 2.8-8.7 2.8-1.4 0-2.2-.7-2.2-2.1 0-.9.6-1.8 1.8-2.7 1.1-.9 2.1-1.3 2.9-1.3.5 0 .7.2.7.6 0 .2-.3.4-1 .8s-1.2.7-1.3.9c.2.2.5.3.9.3 1.2 0 3.3-.8 6.2-2.4 3.1-1.7 4.7-3.2 4.7-4.4 0-1.1-1.7-1.6-5.1-1.6-3.8 0-8.4.8-13.7 2.3-3.5 1.1-6.7 2.3-9.7 3.7-4.8 2.3-7.2 4.4-7.2 6.4 0 2.4 3.3 4.1 9.9 5 3.8.6 8 .9 12.6.9.9 0 1.4.4 1.4 1.2 0 1.5-1.5 2.3-4.6 2.5-9.3.5-18.2 3-26.6 7.4-8.6 4.6-12.9 9.1-12.9 13.7 0 4.5 3.3 6.7 10 6.7 4 0 7.9-1 11.6-3.1 2.5-1.4 5-3.3 7.5-5.7 2.1-2.1 3.2-3.1 3.3-3.1.5 0 .8.8.8 2.3 0 2.5-2.4 5.4-7.3 8.6-4.9 3.2-9.8 4.9-14.8 4.9-9.1 0-13.6-4.1-13.6-12.3 0-5.3 3.2-10 9.6-13.9 4.3-2.6 9.6-4.7 15.9-6.3 2.2-.5 4.8-1 8.4-1.5zM55 312.5l-8.8 7.5c-4.7 3.7-8.2 5.6-10.4 5.6-.3 0-.4-.2-.4-.5 0-.5.4-.8 1.3-1 1-.2 2.1-.6 3.4-1.5 1.6-.9 4.2-3 8-6.2 2.7-2.3 5.6-4.8 8.7-7.5 3.5-6 8.4-12.6 14.5-19.6 6.9-7.8 11.5-11.8 13.8-11.8 1.1 0 1.6.7 1.6 2 0 3.4-3.5 8.8-10.5 16.3-4.4 4.7-9.2 9.3-14.4 13.7-1.2 1-2.7 3.2-4.5 6.5-1.9 3.4-2.8 5.8-2.8 7.2 0 .7.6 1 2 1 .3 0 .5.2.5.6 0 .5-.6.8-1.9.8-2 0-2.9-1.1-2.9-3.4 0-2.1.9-5.3 2.8-9.7zm29.9-33.7c-.9 0-4.6 4.1-10.9 12.4-6.1 7.9-9.9 13.3-11.6 16.3 15.4-14.4 23.2-23.7 23.2-28 0-.5-.3-.7-.7-.7zM79 323.2c0 .7.7 1.1 2.1 1.1.3 0 .5.2.5.7 0 .5-.8.8-2.4.8-1.8 0-2.7-1-2.7-2.9 0-2.3 2.6-7 7.9-14.2l-9.7 9c-5.7 5.4-9.9 8-12.5 8-.3 0-.4-.2-.4-.5 0-.5.2-.8.7-.9 1.5-.3 2.9-.9 4.1-1.7 1.5-1 4.8-3.7 9.8-8.2L87.3 304c.5-.2 1.1-.3 1.9-.3.8 0 1.2.5 1.2 1.6s-1.9 4.2-5.7 9.2c-3.8 4.8-5.7 7.8-5.7 8.7zm15.7-28.1c-1.1 0-1.7-.7-1.7-2 0-1.1.6-2.1 1.7-3 1-.8 2.1-1.2 3.1-1.2 1.2 0 1.8.8 1.8 2.3 0 1.1-.6 2.1-1.8 2.8-1 .8-2.1 1.1-3.1 1.1zm20.6 4.1l-12.8.6c-.7 0-1.1-.2-1.1-.6 0-.4.6-.6 1.7-.8 1.6-.3 3.9-.6 6.9-.8 3.3-.2 5.6-.4 6.9-.6l5.1-6.9c2.7-3.7 4.4-5.5 4.9-5.5.7 0 1.1.5 1.1 1.5 0 1.1-2.2 4.7-6.5 10.9 2.5-.2 4.5-.3 6.2-.3 1.1 0 1.6.2 1.6.7 0 .5-1.3.9-3.9 1.1l-5.4.2-7.9 11.3c-5 7.4-7.5 11.8-7.5 13.3 0 .7.4 1 1.2 1 .8 0 1.2.2 1.2.7 0 .5-.5.8-1.6.8-2.1 0-3.2-1-3.2-2.9 0-1.5.7-3.7 2.1-6.6l3.1-5.9-10.4 9.3c-4.4 3.9-7.7 5.9-10.1 5.9-.3 0-.4-.2-.4-.5 0-.5.2-.8.7-.9.8-.2 2-.7 3.7-1.4 1.6-.9 5.1-3.9 10.6-8.7 4-3.6 6.6-5.9 7.6-7 1.8-2 3.9-4.6 6.2-7.9zm82.8 3.1h3.3c1.6.2 2.4.7 2.4 1.7 0 .6-.6.9-1.7.9l-2.3-.2h-3.3l-7.2 10.5c-4.9 7-7.6 10.4-8.1 10.4s-.9-.4-1.3-1.2c-.4-.7-.5-1.3-.5-1.8 0-.8 4-6.8 12.1-17.9h-2.8c-3.9 0-9.6.3-17.2.7l-12 11.7-4.6 4.8c-2.5 2.5-4 3.7-4.6 3.7-.7 0-1-.4-1-1.2 0-1 3.4-4.7 10.3-11.2l8.1-7.7c-10.9.6-16.5 1.2-16.8 1.9 0 .5 1.7.8 5.1.8l4.8-.1c.6 0 1 .1 1 .5 0 .8-2.6 1.1-7.7 1.1-4.4 0-6.6-.6-6.6-1.9 0-1.6 1.3-2.7 3.9-3.3.7-.2 2.6-.4 5.5-.6l13.8-1.1c5.6-5.3 13.6-12.1 23.9-20.5 13.2-10.7 21.1-16 23.7-16 1.3 0 1.9.9 1.9 2.8 0 1.6-1.7 4.8-5 9.5l-17.1 23.7zm-5.1 0l16.6-23.1 3.1-4.3c1.3-1.9 2.2-3.4 2.6-4.4l.1-.2c0-.3-.1-.4-.4-.4-1.1 0-8.1 5.4-21.1 16.2l-19.5 16.6 18.6-.4zm60.3 1.9c0 2.9-1.9 6.3-5.6 10.2-3.9 4.1-8.6 7.3-14.2 9.5-5.3 2.1-10.7 3.2-16.2 3.2-7.5 0-11.3-2.6-11.3-7.7 0-3.1 2.1-5.9 6.3-8.4 3.7-2.2 7-3.4 10.1-3.4 1 0 1.5.3 1.5 1 0 .5-.5.8-1.5.9-2.9.5-5.7 1.5-8.4 2.8-3.8 1.9-5.7 4-5.7 6.4 0 2.9 2.9 4.3 8.8 4.3 4.7 0 9.8-1.1 15.3-3.2 5.6-2.2 10.1-5 13.6-8.5 3.4-3.4 5.2-5.9 5.2-7.5 0-1.6-2.3-2.8-7-3.4-7.7-1-12-1.7-12.9-1.9-4.7-1.3-7-3.6-7-6.9 0-4.2 2.7-8.2 8.2-12 4.5-3.1 10.2-5.7 17.1-7.9 6.1-1.9 10.9-2.8 14.5-2.8 4.7 0 7 1.6 7 4.9 0 2.8-2.2 6.2-6.5 10-4.2 3.7-7.6 5.6-10.3 5.6-2.1 0-3.2-.8-3.2-2.5 0-1.4 1.2-3.1 3.7-4.9 2.3-1.8 4.1-2.7 5.4-2.7.4 0 .7.2.7.5l-3.7 2.3c-2.4 1.5-3.7 2.6-3.8 3.3.1.2.3.3.6.3 1.7 0 4.5-1.3 8.4-3.9 4.1-2.8 6.2-5 6.2-6.8 0-1.6-1.7-2.4-5-2.4-3.8 0-9.1 1.2-16 3.7-4.6 1.7-8.7 3.5-12.2 5.4-6.1 3.2-9.1 6.2-9.1 8.8 0 1.7 1.9 2.9 5.7 3.7l11.4 1.7c4.4.8 7.2 1.9 8.1 3.3 1.3 1.7 1.8 3.4 1.8 5zm57.1-1.9h3.3c1.6.2 2.4.7 2.4 1.7 0 .6-.6.9-1.7.9l-2.3-.2h-3.3l-7.2 10.5c-4.9 7-7.6 10.4-8.1 10.4s-.9-.4-1.3-1.2c-.4-.7-.5-1.3-.5-1.8 0-.8 4-6.8 12.1-17.9H301c-3.9 0-9.6.3-17.2.7l-12 11.7-4.6 4.8c-2.5 2.5-4 3.7-4.6 3.7-.7 0-1-.4-1-1.2 0-1 3.4-4.7 10.3-11.2l8.1-7.7c-10.9.6-16.5 1.2-16.8 1.9 0 .5 1.7.8 5.1.8l4.8-.1c.6 0 1 .1 1 .5 0 .8-2.6 1.1-7.7 1.1-4.4 0-6.6-.6-6.6-1.9 0-1.6 1.3-2.7 3.9-3.3.7-.2 2.6-.4 5.5-.6l13.8-1.1c5.6-5.3 13.6-12.1 23.9-20.5 13.2-10.7 21.1-16 23.7-16 1.3 0 1.9.9 1.9 2.8 0 1.6-1.7 4.8-5 9.5l-17.1 23.7zm-5.1 0l16.6-23.1 3.1-4.3c1.3-1.9 2.2-3.4 2.6-4.4l.1-.2c0-.3-.1-.4-.4-.4-1.1 0-8.1 5.4-21.1 16.2l-19.5 16.6 18.6-.4z"/></svg>