<svg xmlns="http://www.w3.org/2000/svg" width="0" height="0" style="position:absolute"><symbol id="bars" viewBox="0 0 50 50"><path d="M0 3h50v2H0zm0 14h50v2H0zm0 14h50v2H0zm0 14h50v2H0z"/></symbol><symbol id="cup" viewBox="0 0 64 64"><path d="M51 13h-5v-3c0-.6-.4-1-1-1H19c-.6 0-1 .4-1 1v3h-5c-.6 0-1 .4-1 1v10c0 3.6 2.8 6.6 6.3 7 1.1 5 4.8 9 9.7 10.4v.6c-.1.8-.2 1.5-.4 2.2-.5 1.8-1.2 2.8-2.1 2.8H22c-2.2 0-4 1.8-4 4s1.8 4 4 4h2c.6 0 1-.4 1-1s-.4-1-1-1h-2c-1.1 0-2-.9-2-2s.9-2 2-2h20c1.1 0 2 .9 2 2s-.9 2-2 2H29c-.6 0-1 .4-1 1s.4 1 1 1h13c2.2 0 4-1.8 4-4s-1.8-4-4-4h-3c-.9 0-1.6-1-2.1-2.7-.2-.7-.3-1.5-.4-2.2v-.8c.7-.3 1.5-.6 2.1-.9.4-.3.6-.8.4-1.3-.2-.5-.8-.7-1.3-.5l-1.1.5s-.1 0-.1.1c-1.4.5-2.9.8-4.5.8-6.6 0-12-5.4-12-12V11h24v17c0 1.4-.2 2.8-.7 4l-.3 1c-.2.5.1 1.1.6 1.3.5.2 1.1-.1 1.3-.6l.2-.6c.3-.7.5-1.4.6-2.1 3.5-.3 6.3-3.3 6.3-7V14c0-.6-.5-1-1-1zM34.5 41.8v.4c.1.9.2 1.7.4 2.6.2.9.5 1.6.9 2.3h-7.2c.4-.6.7-1.4.9-2.3.2-.8.3-1.7.4-2.6v-.3c.7.1 1.3.2 2 .2 1-.1 1.8-.2 2.6-.3zM14 24v-9h4v13.9c-2.3-.4-4-2.5-4-4.9zm32 4.9V15h4v9c0 2.4-1.7 4.5-4 4.9zm-5.5 8a1 1 0 1 0 2 0 1 1 0 1 0-2 0zm-3-10.8zM38 20l-2.6-.4h-.1l-1.2-2.3c-1-2-3.5-2-4.5 0l-1.2 2.3h-.1L26 20c-2.2.3-3 2.7-1.4 4.3l1.9 1.8v.1l-.4 2.6c-.4 2.2 1.7 3.7 3.6 2.6l2.3-1.2c.1.1 2.3 1.2 2.3 1.2 2 1 4-.5 3.6-2.6l-.4-2.6v-.1l1.9-1.8c1.5-1.6.8-4-1.4-4.3zm0 2.8l-1.9 1.9c-.4.4-.6 1.1-.5 1.7L36 29c.1.5-.2.8-.7.5l-2.4-1.2c-.5-.3-1.3-.3-1.8 0l-2.4 1.2c-.5.3-.8 0-.7-.5l.4-2.6c.1-.5-.2-1.3-.5-1.7L26 22.8c-.4-.4-.3-.8.3-.8l2.6-.4c.5-.1 1.2-.5 1.4-1l1.2-2.4c.2-.5.6-.5.9 0l1.2 2.4c.2.5.9 1 1.4 1l2.6.4c.6.1.8.4.4.8zm-6 7.3zm3.4-10.5zm-6.8 0zm-2.1 6.5z"/></symbol><symbol id="diploma" viewBox="0 0 64 64"><path d="M45.961 38.575l.702-.144a3.015 3.015 0 0 0 2.35-3.517l-.357-1.857 1.565-1.06a3.015 3.015 0 0 0 .825-4.148l-1.04-1.578 1.04-1.58a3.015 3.015 0 0 0-.825-4.147l-1.565-1.06.357-1.857a3.015 3.015 0 0 0-2.35-3.516l-1.852-.381-.38-1.852a3.015 3.015 0 0 0-3.517-2.35l-1.857.358-1.06-1.566a3.015 3.015 0 0 0-4.148-.825l-1.578 1.04-1.58-1.04a3.014 3.014 0 0 0-4.147.825l-1.06 1.566-1.857-.358a3.014 3.014 0 0 0-3.516 2.35l-.381 1.852-1.852.38a3.015 3.015 0 0 0-2.35 3.517l.358 1.857-1.566 1.06a3.015 3.015 0 0 0-.825 4.148l1.04 1.579-1.04 1.578a3.015 3.015 0 0 0 .825 4.148l1.566 1.06-.358 1.857a3.015 3.015 0 0 0 2.35 3.517l1.852.38.38 1.852a3.014 3.014 0 0 0 3.517 2.35l1.857-.357 1.029 1.519-4.624 10.384c-.223.5-.656.531-.963.077l-1.518-2.252a1.754 1.754 0 0 0-1.55-.69l-2.69.378c-.547.077-.805-.277-.587-.767l2.164-4.86.005-.012 1.635-3.671a1 1 0 0 0-1.827-.814l-.69 1.548-3.114 6.996a2.49 2.49 0 0 0 2.693 3.56l2.442-.343 1.38 2.045a2.487 2.487 0 0 0 4.447-.382l4.442-9.976a2.992 2.992 0 0 0 2.534-.35l1.579-1.04 1.578 1.04a2.986 2.986 0 0 0 2.06.456l4.395 9.87a2.487 2.487 0 0 0 4.448.382l1.38-2.045 2.442.343a2.49 2.49 0 0 0 2.693-3.56zm-12.858 3.584a1.643 1.643 0 0 0-1.665 0l-1.847 1.217A1.015 1.015 0 0 1 28.2 43.1l-1.24-1.831a1.643 1.643 0 0 0-1.538-.637l-2.173.418a1.015 1.015 0 0 1-1.18-.788l-.445-2.167a1.643 1.643 0 0 0-1.176-1.177l-2.168-.446a1.015 1.015 0 0 1-.788-1.179l.418-2.172a1.643 1.643 0 0 0-.637-1.538l-1.831-1.24a1.015 1.015 0 0 1-.277-1.392l1.217-1.847a1.643 1.643 0 0 0 0-1.665l-1.217-1.847a1.014 1.014 0 0 1 .277-1.391l1.831-1.24a1.643 1.643 0 0 0 .637-1.538l-.418-2.173a1.015 1.015 0 0 1 .788-1.18l2.168-.445a1.643 1.643 0 0 0 1.176-1.177l.446-2.167a1.015 1.015 0 0 1 1.18-.788l2.172.418a1.643 1.643 0 0 0 1.537-.637L28.2 9.442a1.015 1.015 0 0 1 1.391-.277l1.847 1.217a1.643 1.643 0 0 0 1.665 0l1.847-1.217a1.015 1.015 0 0 1 1.391.277l1.24 1.831a1.643 1.643 0 0 0 1.539.637l2.172-.418a1.015 1.015 0 0 1 1.18.788l.445 2.167a1.643 1.643 0 0 0 1.177 1.177l2.167.446a1.015 1.015 0 0 1 .788 1.18l-.418 2.172a1.643 1.643 0 0 0 .637 1.537l1.831 1.241a1.015 1.015 0 0 1 .277 1.391l-1.217 1.847a1.643 1.643 0 0 0 0 1.665l1.217 1.847a1.014 1.014 0 0 1-.277 1.391l-1.831 1.24a1.643 1.643 0 0 0-.637 1.539l.418 2.172a1.015 1.015 0 0 1-.788 1.18l-2.167.445a1.643 1.643 0 0 0-1.177 1.177l-.446 2.167a1.015 1.015 0 0 1-1.179.788l-2.172-.418a1.643 1.643 0 0 0-1.538.637l-1.24 1.831a1.015 1.015 0 0 1-1.392.277zm15.75 9.913l-2.69-.379a1.754 1.754 0 0 0-1.55.69l-1.52 2.253c-.305.454-.739.423-.962-.077l-4.44-9.972a2.98 2.98 0 0 0 .306-.366l1.06-1.565 1.857.357a3.015 3.015 0 0 0 3.517-2.35l.085-.416 4.924 11.058c.218.49-.04.844-.588.767zm-7.919-30.816a1 1 0 1 0 2 0 1 1 0 1 0-2 0zM44 26.001V25a1 1 0 0 0-2 0v1.002a1.023 1.023 0 0 0 .012.153l-.013.008a10 10 0 1 1-3.577-7.828l.001-.001.625.582a1 1 0 0 0 1.364-1.463l-.177-.165.01-.006q-.226-.214-.464-.416l-.102-.096a1.014 1.014 0 0 0-.161-.123A12 12 0 1 0 44 26.001z"/></symbol><symbol id="envelope" viewBox="0 0 40 40"><style>.st0{fill:#ea6a45}</style><path class="st0" d="M35.8 34H4.2C1.8 34 0 32.2 0 30.1V9.9C0 7.8 1.8 6 4.2 6h31.7C38.2 6 40 7.8 40 9.9v20.2c0 2.1-1.8 3.9-4.2 3.9M4.2 7.6c-1.4 0-2.5 1.1-2.5 2.3v20.2c0 1.3 1.1 2.3 2.5 2.3h31.7c1.4 0 2.5-1.1 2.5-2.3V9.9c0-1.3-1.1-2.3-2.5-2.3H4.2zM20 24.7c-1.7 0-3.3-.7-4.5-1.9L1.3 8.3C1 8 1 7.5 1.3 7.2c.3-.3.8-.3 1.2 0l14.3 14.5c1.6 1.6 4.3 1.7 6.1.3l.3-.3L37.4 7.3c.3-.3.8-.3 1.2 0 .3.3.4.7 0 1.1L24.5 22.9c-1.2 1.1-2.8 1.8-4.5 1.8zM1.9 33c-.2 0-.5-.1-.6-.3-.4-.2-.3-.7 0-1l13.1-11.1c.3-.3.8-.3 1.2 0 .3.3.3.8-.1 1.1L2.4 32.8c-.1.2-.3.2-.5.2zm36.2 0c-.2 0-.4-.1-.6-.2l-13-11.1c-.3-.3-.4-.8-.1-1.1.3-.3.8-.4 1.1-.1l13 11.1c.3.3.4.8.1 1.1-.1.2-.3.3-.5.3"/></symbol><symbol id="map-marker" viewBox="0 0 40 40"><style>.st0{fill:#ea6a45}</style><path class="st0" d="M20 .4C11.6.3 4.7 7 4.5 15.4c0 7.9 14.3 23.3 14.9 24 .3.3.8.3 1.1 0 .6-.7 14.9-16.1 14.9-24C35.3 7 28.4.3 20 .4m0 37.4C17.4 34.9 6 21.9 6 15.4c.2-7.7 6.7-13.8 14.4-13.6C27.8 2 33.8 8 34 15.4c0 6.5-11.4 19.5-14 22.4m0-31.9c-4.9.2-8.8 4.3-8.7 9.2.2 4.9 4.3 8.8 9.2 8.7 4.8-.1 8.7-4.1 8.7-9 0-5-4.2-9-9.2-8.9m0 16.5c-4.2-.1-7.4-3.6-7.3-7.8.1-4.2 3.6-7.4 7.8-7.3 4.1.1 7.3 3.5 7.3 7.5-.1 4.2-3.6 7.6-7.8 7.6"/></symbol><symbol id="money" viewBox="0 0 64 64"><path d="M13.995 41.29l.014-.8c.208-6.789 4.156-14.342 9.82-18.189a33.12 33.12 0 0 0 1.743.454 31.691 31.691 0 0 0 4.858.742 21.493 21.493 0 0 0 8.956-1.176 20.464 20.464 0 0 1 4.437 4.142q.024.039.053.075l.617.79a1 1 0 0 0 1.674-1.08v-.001a1.01 1.01 0 0 0-.098-.15l-.254-.326a23.266 23.266 0 0 0-4.72-4.712l5.258-4.883c3.15-2.925 1.332-6.19-2.812-5.095l-1.354.358a5.901 5.901 0 0 1-4.838-1.256l-1.522-1.471a6.157 6.157 0 0 0-8.521 0l-1.522 1.47a5.894 5.894 0 0 1-4.838 1.257l-1.354-.358c-4.146-1.096-5.957 2.174-2.812 5.095l5.298 4.92A26.328 26.328 0 0 0 12.05 39.623a1.02 1.02 0 0 0-.03.229l-.01.584-.003.1-.012.718a1 1 0 1 0 2 .035zm4.146-26.58c-1.617-1.5-1.197-2.26.94-1.695l1.354.358a7.853 7.853 0 0 0 6.739-1.752l1.522-1.47a4.157 4.157 0 0 1 5.741 0l1.522 1.47a7.86 7.86 0 0 0 6.74 1.752l1.353-.358c2.136-.565 2.561.19.94 1.696l-6.063 5.629a18.857 18.857 0 0 1-8.359 1.162 29.723 29.723 0 0 1-4.55-.697 31.147 31.147 0 0 1-1.833-.48zm30.47 15.64l-.012.002-.226-.484a1 1 0 0 0-1.813.844h-.003l.045.09.382.82a1.021 1.021 0 0 0 .077.136 22.819 22.819 0 0 1 2.145 9.295c0 9.722-7.881 13.897-17.603 13.897-6.32 0-11.862-1.764-14.967-5.67l-.015.01-.31-.443a1.005 1.005 0 0 0-1.388-.24.993.993 0 0 0-.25 1.387l.296.422-.002.002.034.045.214.306a.962.962 0 0 0 .228.23c3.388 3.9 9.077 5.951 16.16 5.951 11.705 0 19.603-5.6 19.603-15.897a24.955 24.955 0 0 0-2.595-10.703zm-35.99 15.144a1 1 0 1 0 2 0 1 1 0 1 0-2 0zm18.975-5.302a5.808 5.808 0 0 0 3.753-1.072 3.747 3.747 0 0 0 1.318-3.085 3.534 3.534 0 0 0-1.2-2.9 5.598 5.598 0 0 0-3.608-.985h-3.7V42H26v2h2.16v2h2.1v-2H34v-2h-3.74v-1.808zm-1.336-6.284h1.459a3.343 3.343 0 0 1 2.11.545 1.995 1.995 0 0 1 .676 1.652 2.047 2.047 0 0 1-.756 1.758 4 4 0 0 1-2.373.563H30.26z"/></symbol><symbol id="phone-1" viewBox="0 0 40 40"><path d="M21.91 3.534A13.393 13.393 0 0 1 26 12.828a1.311 1.311 0 1 1-2.62.1A10.432 10.432 0 0 0 13.3 2.649a1.492 1.492 0 0 1-1.14-.417 1.339 1.339 0 0 1-.21-1.476 1.161 1.161 0 0 1 1.19-.752 12.73 12.73 0 0 1 6.99 2.161c.73.482 1.39 1.065 1.78 1.369zm-8.87 1.371a1.645 1.645 0 0 0-.7.141 1.318 1.318 0 0 0-.65 1.529 1.238 1.238 0 0 0 1.24.957 5.449 5.449 0 0 1 3.8 1.478 5.6 5.6 0 0 1 1.78 4.075 1.649 1.649 0 0 0 .28.837 1.288 1.288 0 0 0 1.54.378 1.233 1.233 0 0 0 .79-1.242A8.136 8.136 0 0 0 13.04 4.9zm7.43 19.986c.54-.6 1.14-1.149 1.71-1.726a1.8 1.8 0 0 0 .01-2.732q-1.5-1.514-3-3.015a1.761 1.761 0 0 0-2.67 0c-.63.622-1.26 1.244-1.87 1.88a.663.663 0 0 1-.12.105l-.43.43a.344.344 0 0 1-.39-.009c-.41-.221-.84-.4-1.23-.644a19.25 19.25 0 0 1-4.67-4.274 10.9 10.9 0 0 1-1.67-2.7.375.375 0 0 1 .02-.409l.43-.43a.608.608 0 0 1 .07-.085c.19-.182.37-.365.56-.549.43-.431.86-.867 1.29-1.3a1.8 1.8 0 0 0-.01-2.75c-.48-.493-.97-.983-1.46-1.475-.51-.506-1.01-1.016-1.52-1.518a1.767 1.767 0 0 0-2.67 0c-.63.62-1.24 1.261-1.88 1.871a3.067 3.067 0 0 0-.95 2.065 8.808 8.808 0 0 0 .67 3.762 22.862 22.862 0 0 0 4.03 6.756 25.056 25.056 0 0 0 8.28 6.5 12 12 0 0 0 4.59 1.342 3.355 3.355 0 0 0 2.88-1.096z"/></symbol><symbol id="phone-2" viewBox="0 0 40 40"><style>.st0{fill:#ea6a45}</style><path class="st0" d="M25.3 22.5c-.6 0-1.1-.5-1.1-1.1 0-3-2.4-5.4-5.4-5.4-.6 0-1.1-.5-1.1-1.1 0-.6.5-1.1 1.1-1.1 4.2 0 7.6 3.4 7.6 7.6 0 .6-.5 1.1-1.1 1.1m6 .1c-.6 0-1.1-.5-1.1-1.1 0-6.4-5.1-11.6-11.5-11.6-.6 0-1.1-.5-1.1-1.1 0-.6.5-1.1 1.1-1.1 7.6 0 13.8 6.3 13.7 13.9 0 .5-.5 1-1.1 1m6-.1c-.6 0-1.1-.5-1.1-1.1 0-9.6-7.7-17.4-17.3-17.5-.6 0-1.1-.5-1.1-1.1 0-.6.5-1.1 1.1-1.1 10.8.1 19.6 8.9 19.5 19.7 0 .6-.5 1.1-1.1 1.1M27 38.4c-5.6 0-11.4-2.9-16.9-8.5C1.6 21.4-.6 12.1 4 4.5c.8-1.4 2.4-2.3 4-2.3 1.2 0 2.4.5 3.3 1.4L13 5.4c1.5 1.5 1.8 3.8.7 5.7-2.9 5.5-.8 12.3 4.7 15.2 1.6.8 3.4 1.3 5.2 1.3 1.8 0 3.5-.4 5.1-1.3.7-.4 1.5-.6 2.3-.6 1.2 0 2.4.5 3.3 1.4l1.7 1.8c1.8 1.9 1.8 4.9-.1 6.7-.3.3-.5.5-.8.7-2.4 1.3-5.3 2.1-8.1 2.1M8 4.5c-.9 0-1.7.5-2.1 1.2-4 6.6-1.9 14.9 5.7 22.6 5 5 10.4 7.8 15.4 7.8 2.5 0 4.9-.7 7-2 .7-.4 1.1-1.1 1.2-1.9.1-.7-.2-1.5-.7-2l-1.7-1.7c-.8-.8-2-.9-2.9-.4-1.9 1.1-4 1.7-6.2 1.6-7.4 0-13.4-6.1-13.4-13.5 0-2.2.6-4.4 1.6-6.3.6-1 .4-2.2-.4-3L9.7 5.2c-.5-.4-1.1-.7-1.7-.7"/></symbol><symbol id="phone-3" viewBox="0 0 64 64"><path d="M53.37 50.86a1 1 0 0 0-.053-.324 9.756 9.756 0 0 0-4.54-6.03l.047-.046c1.698-1.698 1.698-3.792.287-5.791a15.008 15.008 0 0 0-5.497-4.296c-2.603-1.302-4.25-.854-5.847.911a27.93 27.93 0 0 0-.33.375c-.663.762-.946 1.016-1.303 1.135-.392.13-6.01-4.077-6.945-4.948-.312-.292-.6-.566-.858-.815-.238-.247-.5-.522-.777-.821a49.25 49.25 0 0 1-2.343-2.7c-1.564-1.954-2.44-3.55-2.308-3.947.119-.357.372-.64 1.135-1.303.182-.158.269-.235.375-.33 1.765-1.598 2.212-3.244.91-5.848a15.007 15.007 0 0 0-4.295-5.496c-2-1.412-4.093-1.412-5.791.287-2.228 2.227-3.11 3.331-3.729 5.106-.823 2.36-.525 5.062 1.057 8.403l.197.28q.45 1 1.008 2.019a1 1 0 0 0 .07.151l.473.818a1.004 1.004 0 0 0 1.361.357.993.993 0 0 0 .371-1.357l-.472-.818a.936.936 0 0 0-.053-.081l.002-.002q-.615-1.098-1.15-2.223l-.196-.28c-2.24-4.864-1.501-6.983 2.475-10.96.953-.953 1.968-.953 3.224-.066a13.179 13.179 0 0 1 3.66 4.757c.868 1.736.678 2.436-.464 3.47a21.86 21.86 0 0 1-.346.304 4.682 4.682 0 0 0-1.72 2.18c-.456 1.37.566 3.231 2.644 5.83a51.18 51.18 0 0 0 2.44 2.81q.245.264.472.504l.267.278a.889.889 0 0 0 .073.077l.015.014.012.013c.155.16.267.274.33.336l.01-.01q.264.251.558.526a56.74 56.74 0 0 0 2.926 2.558c2.721 2.203 4.633 3.284 6.014 2.824a4.681 4.681 0 0 0 2.18-1.72c.15-.172.22-.252.304-.345 1.034-1.142 1.733-1.332 3.47-.464a13.179 13.179 0 0 1 4.757 3.66c.887 1.256.887 2.27-.067 3.224-3.976 3.976-6.095 4.715-11.24 2.278a87.445 87.445 0 0 1-9.065-5.947 55.093 55.093 0 0 1-3.729-3.396 50.124 50.124 0 0 1-3.692-4.124q-.265-.33-.524-.663l-.01.007-.266-.34a1 1 0 0 0-1.576 1.232l.28.359a.982.982 0 0 0 .108.117q.213.272.43.541a51.206 51.206 0 0 0 3.478 3.922l-.003.004.361.36.346.347.003-.004a56.134 56.134 0 0 0 3.514 3.174 47.722 47.722 0 0 0 7.794 5.358q.846.458 1.696.86c3.34 1.583 6.043 1.88 8.403 1.058a9.62 9.62 0 0 0 3.539-2.224c.085.038.16.07.261.122 1.706.876 3.882 5.011 3.882 5.011a1 1 0 0 0 1.97-.238zm-.498 2.028a1 1 0 0 0-1 1c0 .552 2 .552 2 0a1 1 0 0 0-1-1z"/></symbol><symbol id="smile" viewBox="0 0 64 64"><path d="M44.521 17.244a1 1 0 1 0 2 0 1 1 0 1 0-2 0zm4.953 3.058a1.008 1.008 0 0 0-.137-.248l-.603-.8a1 1 0 0 0-1.597 1.203l.323.43-.008.008a18.982 18.982 0 1 1-5.935-5.38h.001l.595.358a1 1 0 0 0 1.03-1.715l-.168-.1.001-.001q-.206-.127-.416-.249l-.276-.166a1.02 1.02 0 0 0-.142-.07 21.002 21.002 0 1 0 7.332 6.73zm-6.894 17.39l-.12.2-.003-.002q-.05.09-.102.177l-.125.208a12.004 12.004 0 0 1-20.687-.385l-.005.004-.121-.202a1 1 0 0 0-1.715 1.03l.517.86a1.015 1.015 0 0 0 .102.14 14.003 14.003 0 0 0 23.367-.013 1.018 1.018 0 0 0 .09-.128l.148-.244.001-.002.368-.613a1 1 0 0 0-1.714-1.03zM25 27a2 2 0 1 0 4 0 2 2 0 1 0-4 0zm11 0a2 2 0 1 0 4 0 2 2 0 1 0-4 0z"/></symbol><symbol id="time-1" viewBox="0 0 40 40"><path fill-rule="evenodd" d="M0 14A14 14 0 1 0 14 0 14 14 0 0 0 0 14zm4 0A10 10 0 1 0 14 4 10 10 0 0 0 4 14zm11 2H9a1 1 0 1 1 0-2h4.5a.5.5 0 0 0 .5-.5V7a1 1 0 1 1 2 0v8a1 1 0 0 1-1 1z"/></symbol><symbol id="time-2" viewBox="0 0 64 64"><path d="M32 10c-12.2 0-22 9.8-22 22 0 4.6 1.5 9.1 4.2 12.9 0 0 0 .1.1.1l.6.8c.3.4 1 .5 1.4.2.4-.3.5-1 .2-1.4L16 44c-2.6-3.5-4-7.7-4-12 0-11 9-20 20-20s20 9 20 20-9 20-20 20c-3.8 0-7.6-1.1-10.8-3.2l-.7-.5c-.5-.3-1.1-.2-1.4.3-.3.5-.2 1.1.3 1.4l.4.2c.1.1.2.2.4.2l.1.1s.1 0 .1.1C23.8 52.8 27.9 54 32 54c12.2 0 22-9.9 22-22 0-12.2-9.8-22-22-22zm13.7 28.1l-.4.9c-.2.5 0 1.1.5 1.3.5.2 1.1 0 1.3-.5l.1-.3c1.2-2.4 1.8-4.9 1.8-7.6 0-9.4-7.6-17-17-17s-17 7.6-17 17 7.6 17 17 17c3.2 0 6.1-.9 8.7-2.4l.1-.1c.5-.2.7-.8.4-1.3-.2-.5-.8-.7-1.3-.4l-.9.5c-.1 0-.2.1-.2.2-2.1 1-4.4 1.6-6.8 1.6-8.3 0-15-6.7-15-15s6.7-15 15-15 15 6.7 15 15c0 2-.4 4.1-1.2 5.9 0 .1-.1.1-.1.2zm-3 4.8a1 1 0 1 0 2 0 1 1 0 1 0-2 0zM32 21c-.6 0-1 .4-1 1v10.4l.3.3 8 7.5c.4.4 1 .4 1.4 0 .4-.4.4-1 0-1.4L33 31.6V22c0-.6-.4-1-1-1z"/></symbol><symbol id="truck" viewBox="0 0 64 64"><path d="M8 25a1 1 0 1 0 2 0 1 1 0 1 0-2 0zm46.362 8.733l-2.591-.864a1.77 1.77 0 0 1-.817-.701l-3.1-6.227a2.766 2.766 0 0 0-2.336-1.441H40V18a2.998 2.998 0 0 0-2.997-3H10.996A2.994 2.994 0 0 0 8 18v3.001a1 1 0 0 0 2 0v-3A.995.995 0 0 1 10.997 17h26.007A.998.998 0 0 1 38 18v17.001a1 1 0 0 0 2 0V26.5h5.518a.82.82 0 0 1 .545.332l3.1 6.227a3.717 3.717 0 0 0 1.975 1.708l2.591.864A.51.51 0 0 1 54 36v5H40v-2.001a1 1 0 0 0-2 0V41H10V28.999a1 1 0 0 0-2 0V43h46v5.01a.997.997 0 0 1-1.002.99H51.9a5 5 0 0 0-9.798 0H21.899a5 5 0 0 0-9.798 0H9a1 1 0 0 0 0 2h3.1a5 5 0 0 0 9.8 0h20.2a5 5 0 0 0 9.8 0h1.098A2.997 2.997 0 0 0 56 48.01V36a2.48 2.48 0 0 0-1.638-2.268zM17 53a2.994 2.994 0 0 1-2.898-2.263c-.015-.058-.034-.114-.045-.173a2.824 2.824 0 0 1 0-1.128c.011-.059.03-.115.045-.173a2.987 2.987 0 0 1 5.796 0c.015.058.034.114.045.173a2.824 2.824 0 0 1 0 1.128c-.011.059-.03.115-.045.173A2.994 2.994 0 0 1 17 53zm30 0a2.994 2.994 0 0 1-2.898-2.263c-.015-.058-.034-.114-.045-.173a2.824 2.824 0 0 1 0-1.128c.011-.059.03-.115.045-.173a2.987 2.987 0 0 1 5.796 0c.015.058.034.114.045.173a2.824 2.824 0 0 1 0 1.128c-.011.059-.03.115-.045.173A2.994 2.994 0 0 1 47 53z"/></symbol></svg>