<svg xmlns="http://www.w3.org/2000/svg" width="64" height="64" viewBox="0 0 64 64"><path d="M51 13h-5v-3c0-.6-.4-1-1-1H19c-.6 0-1 .4-1 1v3h-5c-.6 0-1 .4-1 1v10c0 3.6 2.8 6.6 6.3 7 1.1 5 4.8 9 9.7 10.4v.6c-.1.8-.2 1.5-.4 2.2-.5 1.8-1.2 2.8-2.1 2.8H22c-2.2 0-4 1.8-4 4s1.8 4 4 4h2c.6 0 1-.4 1-1s-.4-1-1-1h-2c-1.1 0-2-.9-2-2s.9-2 2-2h20c1.1 0 2 .9 2 2s-.9 2-2 2H29c-.6 0-1 .4-1 1s.4 1 1 1h13c2.2 0 4-1.8 4-4s-1.8-4-4-4h-3c-.9 0-1.6-1-2.1-2.7-.2-.7-.3-1.5-.4-2.2v-.8c.7-.3 1.5-.6 2.1-.9.4-.3.6-.8.4-1.3-.2-.5-.8-.7-1.3-.5l-1.1.5s-.1 0-.1.1c-1.4.5-2.9.8-4.5.8-6.6 0-12-5.4-12-12V11h24v17c0 1.4-.2 2.8-.7 4l-.3 1c-.2.5.1 1.1.6 1.3.5.2 1.1-.1 1.3-.6l.2-.6c.3-.7.5-1.4.6-2.1 3.5-.3 6.3-3.3 6.3-7V14c0-.6-.5-1-1-1zM34.5 41.8v.4c.1.9.2 1.7.4 2.6.2.9.5 1.6.9 2.3h-7.2c.4-.6.7-1.4.9-2.3.2-.8.3-1.7.4-2.6v-.3c.7.1 1.3.2 2 .2 1-.1 1.8-.2 2.6-.3zM14 24v-9h4v13.9c-2.3-.4-4-2.5-4-4.9zm32 4.9V15h4v9c0 2.4-1.7 4.5-4 4.9zm-5.5 8a1 1 0 1 0 2 0 1 1 0 1 0-2 0zm-3-10.8zM38 20l-2.6-.4h-.1l-1.2-2.3c-1-2-3.5-2-4.5 0l-1.2 2.3h-.1L26 20c-2.2.3-3 2.7-1.4 4.3l1.9 1.8v.1l-.4 2.6c-.4 2.2 1.7 3.7 3.6 2.6l2.3-1.2c.1.1 2.3 1.2 2.3 1.2 2 1 4-.5 3.6-2.6l-.4-2.6v-.1l1.9-1.8c1.5-1.6.8-4-1.4-4.3zm0 2.8l-1.9 1.9c-.4.4-.6 1.1-.5 1.7L36 29c.1.5-.2.8-.7.5l-2.4-1.2c-.5-.3-1.3-.3-1.8 0l-2.4 1.2c-.5.3-.8 0-.7-.5l.4-2.6c.1-.5-.2-1.3-.5-1.7L26 22.8c-.4-.4-.3-.8.3-.8l2.6-.4c.5-.1 1.2-.5 1.4-1l1.2-2.4c.2-.5.6-.5.9 0l1.2 2.4c.2.5.9 1 1.4 1l2.6.4c.6.1.8.4.4.8zm-6 7.3zm3.4-10.5zm-6.8 0zm-2.1 6.5z"></path></svg>