<?xml version="1.0" encoding="utf-8"?>
<!-- Generator: Adobe Illustrator 19.2.0, SVG Export Plug-In . SVG Version: 6.00 Build 0)  -->
<svg version="1.1" id="Слой_1" shape-rendering="geometricPrecision" xmlns:ev="http://www.w3.org/2001/xml-events"
	 xmlns="http://www.w3.org/2000/svg" xmlns:xlink="http://www.w3.org/1999/xlink" x="0px" y="0px" viewBox="0 0 40 40"
	 style="enable-background:new 0 0 40 40;" xml:space="preserve">
<style type="text/css">
	.st0{fill:#EA6A45;}
</style>
<path class="st0" d="M35.8,34H4.2C1.8,34,0,32.2,0,30.1V9.9C0,7.8,1.8,6,4.2,6h31.7C38.2,6,40,7.8,40,9.9v20.2
	C40,32.2,38.2,34,35.8,34 M4.2,7.6c-1.4,0-2.5,1.1-2.5,2.3v20.2c0,1.3,1.1,2.3,2.5,2.3h31.7c1.4,0,2.5-1.1,2.5-2.3V9.9
	c0-1.3-1.1-2.3-2.5-2.3H4.2z M20,24.7c-1.7,0-3.3-0.7-4.5-1.9L1.3,8.3C1,8,1,7.5,1.3,7.2c0.3-0.3,0.8-0.3,1.2,0c0,0,0,0,0,0
	l14.3,14.5c1.6,1.6,4.3,1.7,6.1,0.3c0.1-0.1,0.2-0.2,0.3-0.3L37.4,7.3C37.7,7,38.2,7,38.6,7.3c0,0,0,0,0,0C38.9,7.6,39,8,38.6,8.4
	L24.5,22.9C23.3,24,21.7,24.7,20,24.7z M1.9,33c-0.2,0-0.5-0.1-0.6-0.3C0.9,32.5,1,32,1.3,31.7l13.1-11.1c0.3-0.3,0.8-0.3,1.2,0
	c0,0,0,0,0,0c0.3,0.3,0.3,0.8-0.1,1.1L2.4,32.8C2.3,33,2.1,33,1.9,33z M38.1,33c-0.2,0-0.4-0.1-0.6-0.2l-13-11.1
	c-0.3-0.3-0.4-0.8-0.1-1.1c0.3-0.3,0.8-0.4,1.1-0.1c0,0,0,0,0,0l13,11.1c0.3,0.3,0.4,0.8,0.1,1.1C38.5,32.9,38.3,33,38.1,33"/>
</svg>
