<?xml version="1.0" encoding="utf-8"?>
<!-- Generator: Adobe Illustrator 19.2.0, SVG Export Plug-In . SVG Version: 6.00 Build 0)  -->
<svg version="1.1" id="Слой_1" shape-rendering="geometricPrecision" xmlns:ev="http://www.w3.org/2001/xml-events"
	 xmlns="http://www.w3.org/2000/svg" xmlns:xlink="http://www.w3.org/1999/xlink" x="0px" y="0px" viewBox="0 0 40 40"
	 style="enable-background:new 0 0 40 40;" xml:space="preserve">
<style type="text/css">
	.st0{fill:#EA6A45;}
</style>
<path class="st0" d="M20,0.4C11.6,0.3,4.7,7,4.5,15.4c0,7.9,14.3,23.3,14.9,24c0.3,0.3,0.8,0.3,1.1,0c0,0,0,0,0,0
	c0.6-0.7,14.9-16.1,14.9-24C35.3,7,28.4,0.3,20,0.4 M20,37.8C17.4,34.9,6,21.9,6,15.4C6.2,7.7,12.7,1.6,20.4,1.8
	C27.8,2,33.8,8,34,15.4C34,21.9,22.6,34.9,20,37.8 M20,5.9c-4.9,0.2-8.8,4.3-8.7,9.2c0.2,4.9,4.3,8.8,9.2,8.7c4.8-0.1,8.7-4.1,8.7-9
	C29.2,9.8,25,5.8,20,5.9 M20,22.4c-4.2-0.1-7.4-3.6-7.3-7.8c0.1-4.2,3.6-7.4,7.8-7.3c4.1,0.1,7.3,3.5,7.3,7.5
	C27.7,19,24.2,22.4,20,22.4"/>
</svg>
