<svg xmlns="http://www.w3.org/2000/svg" width="64" height="64" viewBox="0 0 64 64"><path d="M53.37 50.86a1 1 0 0 0-.053-.324 9.756 9.756 0 0 0-4.54-6.03l.047-.046c1.698-1.698 1.698-3.792.287-5.791a15.008 15.008 0 0 0-5.497-4.296c-2.603-1.302-4.25-.854-5.847.911a27.93 27.93 0 0 0-.33.375c-.663.762-.946 1.016-1.303 1.135-.392.13-6.01-4.077-6.945-4.948-.312-.292-.6-.566-.858-.815-.238-.247-.5-.522-.777-.821a49.25 49.25 0 0 1-2.343-2.7c-1.564-1.954-2.44-3.55-2.308-3.947.119-.357.372-.64 1.135-1.303.182-.158.269-.235.375-.33 1.765-1.598 2.212-3.244.91-5.848a15.007 15.007 0 0 0-4.295-5.496c-2-1.412-4.093-1.412-5.791.287-2.228 2.227-3.11 3.331-3.729 5.106-.823 2.36-.525 5.062 1.057 8.403l.197.28q.45 1 1.008 2.019a1 1 0 0 0 .07.151l.473.818a1.004 1.004 0 0 0 1.361.357.993.993 0 0 0 .371-1.357l-.472-.818a.936.936 0 0 0-.053-.081l.002-.002q-.615-1.098-1.15-2.223l-.196-.28c-2.24-4.864-1.501-6.983 2.475-10.96.953-.953 1.968-.953 3.224-.066a13.179 13.179 0 0 1 3.66 4.757c.868 1.736.678 2.436-.464 3.47a21.86 21.86 0 0 1-.346.304 4.682 4.682 0 0 0-1.72 2.18c-.456 1.37.566 3.231 2.644 5.83a51.18 51.18 0 0 0 2.44 2.81q.245.264.472.504l.267.278a.889.889 0 0 0 .073.077l.015.014.012.013c.155.16.267.274.33.336l.01-.01q.264.251.558.526a56.74 56.74 0 0 0 2.926 2.558c2.721 2.203 4.633 3.284 6.014 2.824a4.681 4.681 0 0 0 2.18-1.72c.15-.172.22-.252.304-.345 1.034-1.142 1.733-1.332 3.47-.464a13.179 13.179 0 0 1 4.757 3.66c.887 1.256.887 2.27-.067 3.224-3.976 3.976-6.095 4.715-11.24 2.278a87.445 87.445 0 0 1-9.065-5.947 55.093 55.093 0 0 1-3.729-3.396 50.124 50.124 0 0 1-3.692-4.124q-.265-.33-.524-.663l-.01.007-.266-.34a1 1 0 0 0-1.576 1.232l.28.359a.982.982 0 0 0 .108.117q.213.272.43.541a51.206 51.206 0 0 0 3.478 3.922l-.003.004.361.36.346.347.003-.004a56.134 56.134 0 0 0 3.514 3.174 47.722 47.722 0 0 0 7.794 5.358q.846.458 1.696.86c3.34 1.583 6.043 1.88 8.403 1.058a9.62 9.62 0 0 0 3.539-2.224c.085.038.16.07.261.122 1.706.876 3.882 5.011 3.882 5.011a1 1 0 0 0 1.97-.238zm-.498 2.028a1 1 0 0 0-1 1c0 .552 2 .552 2 0a1 1 0 0 0-1-1z"></path></svg>