<svg version="1.1" baseProfile="full" xmlns="http://www.w3.org/2000/svg" xmlns:xlink="http://www.w3.org/1999/xlink" xmlns:ev="http://www.w3.org/2001/xml-events" xml:space="preserve" x="0px" y="0px" width="40px" height="40px"  viewBox="0 0 40 40" preserveAspectRatio="none" shape-rendering="geometricPrecision"><path fill="#43a260" d="M1283.91,91.534a13.393,13.393,0,0,1,4.09,9.294,1.311,1.311,0,1,1-2.62.1,10.432,10.432,0,0,0-10.08-10.279,1.492,1.492,0,0,1-1.14-.417,1.339,1.339,0,0,1-.21-1.476,1.161,1.161,0,0,1,1.19-.752,12.73,12.73,0,0,1,6.99,2.161C1282.86,90.647,1283.52,91.23,1283.91,91.534Zm-8.87,1.371a1.645,1.645,0,0,0-.7.141,1.318,1.318,0,0,0-.65,1.529,1.238,1.238,0,0,0,1.24.957,5.449,5.449,0,0,1,3.8,1.478,5.6,5.6,0,0,1,1.78,4.075,1.649,1.649,0,0,0,.28.837,1.288,1.288,0,0,0,1.54.378,1.233,1.233,0,0,0,.79-1.242A8.136,8.136,0,0,0,1275.04,92.9Zm7.43,19.986c0.54-.6,1.14-1.149,1.71-1.726a1.8,1.8,0,0,0,.01-2.732q-1.5-1.514-3-3.015a1.761,1.761,0,0,0-2.67,0c-0.63.622-1.26,1.244-1.87,1.88a0.663,0.663,0,0,1-.12.105l-0.43.43a0.344,0.344,0,0,1-.39-0.009c-0.41-.221-0.84-0.4-1.23-0.644a19.25,19.25,0,0,1-4.67-4.274,10.9,10.9,0,0,1-1.67-2.7,0.375,0.375,0,0,1,.02-0.409l0.43-.43a0.608,0.608,0,0,1,.07-0.085c0.19-.182.37-0.365,0.56-0.549,0.43-.431.86-0.867,1.29-1.3a1.8,1.8,0,0,0-.01-2.75c-0.48-.493-0.97-0.983-1.46-1.475-0.51-.506-1.01-1.016-1.52-1.518a1.767,1.767,0,0,0-2.67,0c-0.63.62-1.24,1.261-1.88,1.871a3.067,3.067,0,0,0-.95,2.065,8.808,8.808,0,0,0,.67,3.762,22.862,22.862,0,0,0,4.03,6.756,25.056,25.056,0,0,0,8.28,6.5,12,12,0,0,0,4.59,1.342A3.355,3.355,0,0,0,1282.47,112.89Z" transform="translate(-1262 -88)"></path></svg>