<?xml version="1.0" encoding="utf-8"?>
<!-- Generator: Adobe Illustrator 19.2.0, SVG Export Plug-In . SVG Version: 6.00 Build 0)  -->
<svg version="1.1" id="Слой_1" shape-rendering="geometricPrecision" xmlns:ev="http://www.w3.org/2001/xml-events"
	 xmlns="http://www.w3.org/2000/svg" xmlns:xlink="http://www.w3.org/1999/xlink" x="0px" y="0px" viewBox="0 0 40 40"
	 style="enable-background:new 0 0 40 40;" xml:space="preserve">
<style type="text/css">
	.st0{fill:#EA6A45;}
</style>
<path class="st0" d="M25.3,22.5c-0.6,0-1.1-0.5-1.1-1.1c0,0,0,0,0,0c0-3-2.4-5.4-5.4-5.4c-0.6,0-1.1-0.5-1.1-1.1
	c0-0.6,0.5-1.1,1.1-1.1c4.2,0,7.6,3.4,7.6,7.6C26.4,22,25.9,22.5,25.3,22.5C25.3,22.5,25.3,22.5,25.3,22.5 M31.3,22.6
	c-0.6,0-1.1-0.5-1.1-1.1c0-6.4-5.1-11.6-11.5-11.6c-0.6,0-1.1-0.5-1.1-1.1c0-0.6,0.5-1.1,1.1-1.1c7.6,0,13.8,6.3,13.7,13.9
	C32.4,22.1,31.9,22.6,31.3,22.6 M37.3,22.5c-0.6,0-1.1-0.5-1.1-1.1c0-9.6-7.7-17.4-17.3-17.5c-0.6,0-1.1-0.5-1.1-1.1
	c0-0.6,0.5-1.1,1.1-1.1c10.8,0.1,19.6,8.9,19.5,19.7C38.4,22,37.9,22.5,37.3,22.5 M27,38.4c-5.6,0-11.4-2.9-16.9-8.5
	C1.6,21.4-0.6,12.1,4,4.5c0.8-1.4,2.4-2.3,4-2.3c1.2,0,2.4,0.5,3.3,1.4L13,5.4c1.5,1.5,1.8,3.8,0.7,5.7c-2.9,5.5-0.8,12.3,4.7,15.2
	c1.6,0.8,3.4,1.3,5.2,1.3c1.8,0,3.5-0.4,5.1-1.3c0.7-0.4,1.5-0.6,2.3-0.6c1.2,0,2.4,0.5,3.3,1.4l1.7,1.8c1.8,1.9,1.8,4.9-0.1,6.7
	c-0.3,0.3-0.5,0.5-0.8,0.7C32.7,37.6,29.8,38.4,27,38.4 M8,4.5C7.1,4.5,6.3,5,5.9,5.7c-4,6.6-1.9,14.9,5.7,22.6
	c5,5,10.4,7.8,15.4,7.8c2.5,0,4.9-0.7,7-2c0.7-0.4,1.1-1.1,1.2-1.9c0.1-0.7-0.2-1.5-0.7-2l-1.7-1.7c-0.8-0.8-2-0.9-2.9-0.4
	c-1.9,1.1-4,1.7-6.2,1.6c-7.4,0-13.4-6.1-13.4-13.5c0-2.2,0.6-4.4,1.6-6.3c0.6-1,0.4-2.2-0.4-3L9.7,5.2C9.2,4.8,8.6,4.5,8,4.5"/>
</svg>
