<svg xmlns="http://www.w3.org/2000/svg" width="64" height="64" viewBox="0 0 64 64"><path d="M44.521 17.244a1 1 0 1 0 2 0 1 1 0 1 0-2 0zm4.953 3.058a1.008 1.008 0 0 0-.137-.248l-.603-.8a1 1 0 0 0-1.597 1.203l.323.43-.008.008a18.982 18.982 0 1 1-5.935-5.38h.001l.595.358a1 1 0 0 0 1.03-1.715l-.168-.1.001-.001q-.206-.127-.416-.249l-.276-.166a1.02 1.02 0 0 0-.142-.07 21.002 21.002 0 1 0 7.332 6.73zm-6.894 17.39l-.12.2-.003-.002q-.05.09-.102.177l-.125.208a12.004 12.004 0 0 1-20.687-.385l-.005.004-.121-.202a1 1 0 0 0-1.715 1.03l.517.86a1.015 1.015 0 0 0 .102.14 14.003 14.003 0 0 0 23.367-.013 1.018 1.018 0 0 0 .09-.128l.148-.244.001-.002.368-.613a1 1 0 0 0-1.714-1.03zM25 27a2 2 0 1 0 4 0 2 2 0 1 0-4 0zm11 0a2 2 0 1 0 4 0 2 2 0 1 0-4 0z"></path></svg>