<svg xmlns="http://www.w3.org/2000/svg" width="64" height="64" viewBox="0 0 64 64"><path d="M32 10c-12.2 0-22 9.8-22 22 0 4.6 1.5 9.1 4.2 12.9 0 0 0 .1.1.1l.6.8c.3.4 1 .5 1.4.2.4-.3.5-1 .2-1.4L16 44c-2.6-3.5-4-7.7-4-12 0-11 9-20 20-20s20 9 20 20-9 20-20 20c-3.8 0-7.6-1.1-10.8-3.2l-.7-.5c-.5-.3-1.1-.2-1.4.3-.3.5-.2 1.1.3 1.4l.4.2c.1.1.2.2.4.2l.1.1s.1 0 .1.1C23.8 52.8 27.9 54 32 54c12.2 0 22-9.9 22-22 0-12.2-9.8-22-22-22zm13.7 28.1l-.4.9c-.2.5 0 1.1.5 1.3.5.2 1.1 0 1.3-.5l.1-.3c1.2-2.4 1.8-4.9 1.8-7.6 0-9.4-7.6-17-17-17s-17 7.6-17 17 7.6 17 17 17c3.2 0 6.1-.9 8.7-2.4l.1-.1c.5-.2.7-.8.4-1.3-.2-.5-.8-.7-1.3-.4l-.9.5c-.1 0-.2.1-.2.2-2.1 1-4.4 1.6-6.8 1.6-8.3 0-15-6.7-15-15s6.7-15 15-15 15 6.7 15 15c0 2-.4 4.1-1.2 5.9 0 .1-.1.1-.1.2zm-3 4.8a1 1 0 1 0 2 0 1 1 0 1 0-2 0zM32 21c-.6 0-1 .4-1 1v10.4l.3.3 8 7.5c.4.4 1 .4 1.4 0 .4-.4.4-1 0-1.4L33 31.6V22c0-.6-.4-1-1-1z"></path></svg>