<svg version="1.1" baseProfile="full" xmlns="http://www.w3.org/2000/svg" xmlns:xlink="http://www.w3.org/1999/xlink" xmlns:ev="http://www.w3.org/2001/xml-events" xml:space="preserve" x="0px" y="0px" width="40px" height="40px"  viewBox="0 0 40 40" preserveAspectRatio="none" shape-rendering="geometricPrecision"><path fill="#4daf7c" fill-rule="evenodd" d="M1014,101a14,14,0,1,0,14-14A14,14,0,0,0,1014,101Zm4,0a10,10,0,1,0,10-10A10,10,0,0,0,1018,101Zm11,2h-6a1,1,0,1,1,0-2h4.5a0.5,0.5,0,0,0,.5-0.5V94a1,1,0,1,1,2,0v8A1,1,0,0,1,1029,103Z" transform="translate(-1014 -87)"></path></svg>